<svg width="150" height="26" viewBox="0 0 150 26" fill="none" xmlns="http://www.w3.org/2000/svg">
<path d="M49.689 15.6898L53.352 16.6252C52.9261 18.326 52.0316 19.6866 50.6473 20.6858C49.2631 21.685 47.6659 22.2165 45.8557 22.2165C43.6196 22.2165 41.7242 21.4724 40.1696 20.0055C38.6149 18.5386 37.8483 16.6252 37.8483 14.3291C37.8483 12.0331 38.6149 10.1197 40.1696 8.63148C41.7242 7.14329 43.6196 6.3992 45.8557 6.3992C47.6233 6.3992 49.1779 6.90944 50.5409 7.90865C51.9038 8.90786 52.8409 10.2472 53.352 11.9055L49.5399 12.9898C49.0501 11.0126 47.8149 10.0346 45.8557 10.0346C44.6205 10.0346 43.6196 10.4386 42.8529 11.2252C42.0862 12.0331 41.7029 13.0535 41.7029 14.3291C41.7029 15.6047 42.0862 16.6464 42.8529 17.4331C43.6196 18.2197 44.6205 18.6236 45.8557 18.6236C47.7723 18.5811 49.0501 17.6244 49.689 15.6898Z" fill="#9F79FE"/>
<path d="M60.2519 0.701574C60.7204 1.16929 60.9334 1.72205 60.9334 2.35984C60.9334 3.0189 60.6991 3.57165 60.2519 3.99685C59.8047 4.42205 59.2297 4.6559 58.5482 4.6559C57.8454 4.6559 57.2704 4.44331 56.8232 3.99685C56.376 3.55039 56.1417 3.0189 56.1417 2.35984C56.1417 1.72205 56.376 1.16929 56.8232 0.701574C57.2917 0.233857 57.8454 0 58.5269 0C59.2084 0 59.7834 0.233857 60.2519 0.701574ZM56.5676 21.7701V6.84567H60.5288V21.7701H56.5676Z" fill="#9F79FE"/>
<path d="M75.2872 6.73937L75.0742 10.5449H74.2224C70.6659 10.5449 68.877 12.6709 68.877 16.9441V21.7701H64.9159V6.84567H68.877V9.56693C70.24 7.61103 72.0289 6.63307 74.2437 6.63307C74.7122 6.61181 75.0529 6.65433 75.2872 6.73937Z" fill="#9F79FE"/>
<path d="M92.6863 21.7701H88.7252V20.6008C87.3835 21.685 85.7437 22.2165 83.7844 22.2165C81.8039 22.2165 80.0789 21.4724 78.6307 19.963C77.1613 18.4748 76.4372 16.5827 76.4372 14.3079C76.4372 12.0331 77.1613 10.1409 78.6307 8.6315C80.1002 7.12205 81.8039 6.37796 83.7631 6.37796C85.7437 6.37796 87.3835 6.93072 88.7039 8.01497V6.82442H92.665V21.7701H92.6863ZM87.4474 17.5181C88.2992 16.689 88.7465 15.626 88.7465 14.3079C88.7465 12.9898 88.3205 11.9055 87.4474 11.0764C86.5742 10.2472 85.5946 9.82205 84.4872 9.82205C83.2733 9.82205 82.2724 10.226 81.4844 11.0551C80.6965 11.863 80.2918 12.9685 80.2918 14.3079C80.2918 15.6472 80.6965 16.7528 81.4844 17.5606C82.2724 18.3685 83.2733 18.7724 84.4872 18.7724C85.5946 18.7724 86.5742 18.3472 87.4474 17.5181Z" fill="#9F79FE"/>
<path d="M109.894 8.12126C111.001 9.29055 111.533 10.8 111.533 12.6496V21.7488H107.572V13.4787C107.572 12.4157 107.295 11.5654 106.742 10.9276C106.188 10.2898 105.464 9.97086 104.548 9.97086C102.078 9.97086 100.821 11.6929 100.821 15.1157V21.7276H96.8603V6.80315H100.843V8.14252C102.035 6.95197 103.611 6.35669 105.549 6.35669C107.338 6.37795 108.786 6.97323 109.894 8.12126Z" fill="#9F79FE"/>
<path d="M130.402 21.7701H126.441V20.6008C125.099 21.685 123.459 22.2165 121.5 22.2165C119.519 22.2165 117.794 21.4724 116.346 19.963C114.877 18.4748 114.153 16.5827 114.153 14.3079C114.153 12.0331 114.877 10.1409 116.346 8.63148C117.816 7.12203 119.52 6.37794 121.479 6.37794C123.459 6.37794 125.099 6.9307 126.419 8.01495V0.212585H130.381V21.7701H130.402ZM125.142 17.5181C125.994 16.689 126.441 15.626 126.441 14.3079C126.441 12.9898 126.015 11.9055 125.142 11.0764C124.269 10.2472 123.289 9.82203 122.182 9.82203C120.968 9.82203 119.967 10.226 119.179 11.0551C118.391 11.863 117.986 12.9685 117.986 14.3079C117.986 15.6472 118.391 16.7527 119.179 17.5606C119.967 18.3685 120.968 18.7724 122.182 18.7724C123.31 18.7724 124.29 18.3472 125.142 17.5181Z" fill="#9F79FE"/>
<path d="M149.632 21.7701H145.671V20.6008C144.33 21.685 142.69 22.2165 140.731 22.2165C138.75 22.2165 137.025 21.4724 135.577 19.963C134.107 18.4748 133.383 16.5827 133.383 14.3079C133.383 12.0331 134.107 10.1409 135.577 8.6315C137.046 7.12205 138.75 6.37796 140.709 6.37796C142.69 6.37796 144.33 6.93072 145.65 8.01497V6.82442H149.611V21.7701H149.632ZM144.394 17.5181C145.245 16.689 145.693 15.626 145.693 14.3079C145.693 12.9898 145.267 11.9055 144.394 11.0764C143.52 10.2472 142.541 9.82205 141.433 9.82205C140.22 9.82205 139.219 10.226 138.431 11.0551C137.643 11.863 137.238 12.9685 137.238 14.3079C137.238 15.6472 137.643 16.7528 138.431 17.5606C139.219 18.3685 140.22 18.7724 141.433 18.7724C142.541 18.7724 143.542 18.3472 144.394 17.5181Z" fill="#9F79FE"/>
<path d="M26.3908 8.54338C26.2844 8.54338 26.1779 8.54338 26.0714 8.54338C24.5594 5.84338 21.9612 3.80244 18.8733 3.03708C18.1279 2.84575 17.4038 3.41976 17.4038 4.18511C17.4038 4.73787 17.7871 5.20559 18.3196 5.33315C20.577 5.8859 22.5149 7.31031 23.7288 9.20244C21.9186 10.2229 20.726 12.2426 20.939 14.4961C21.1094 16.3457 22.2168 17.9402 23.7927 18.7906C22.5788 20.7465 20.6196 22.1922 18.3196 22.745C17.7871 22.8725 17.4038 23.3402 17.4038 23.893C17.4038 24.6583 18.1279 25.2324 18.8945 25.041C22.0251 24.2757 24.6446 22.1922 26.1566 19.4284C29.2871 19.5772 31.8853 17.0686 31.8853 13.9646C31.8853 11.0095 29.4149 8.54338 26.3908 8.54338ZM27.1362 17.0473C27.0723 17.0686 27.0297 17.0686 26.9659 17.0898H26.9446C26.902 17.0898 26.8381 17.1111 26.7955 17.1111C26.7742 17.1111 26.7742 17.1111 26.7529 17.1111C26.7103 17.1111 26.6677 17.1111 26.6251 17.1324C26.6038 17.1324 26.6038 17.1324 26.5825 17.1324C26.5186 17.1324 26.4547 17.1324 26.4121 17.1324C26.3483 17.1324 26.2844 17.1324 26.2205 17.1324C26.1992 17.1324 26.1779 17.1324 26.1566 17.1324C26.114 17.1324 26.0501 17.1324 26.0075 17.1111C25.9862 17.1111 25.9862 17.1111 25.9649 17.1111C25.901 17.1111 25.8371 17.0898 25.7733 17.0686H25.752C25.6881 17.0473 25.6455 17.0473 25.5816 17.0261C25.5603 17.0261 25.5603 17.0261 25.539 17.0048C25.4112 16.9623 25.2834 16.9198 25.177 16.8772C25.177 16.8772 25.1557 16.8772 25.1557 16.856C25.0918 16.8347 25.0492 16.8135 25.0066 16.7709H24.9853C24.9214 16.7497 24.8575 16.7072 24.8149 16.6646C23.9205 16.1119 23.3242 15.1339 23.3242 14.0284C23.3242 12.9229 23.8992 11.945 24.7723 11.3922C24.9001 11.3072 25.0066 11.2434 25.1344 11.2009C25.1344 11.2009 25.1344 11.2009 25.1557 11.2009C25.2834 11.1371 25.4112 11.0946 25.539 11.052H25.5603C25.6242 11.0308 25.6668 11.0308 25.7307 11.0095H25.752C25.8158 10.9883 25.8797 10.9883 25.9436 10.967H25.9649C26.0288 10.967 26.0714 10.9457 26.1353 10.9457C26.1566 10.9457 26.1779 10.9457 26.1779 10.9457C26.2418 10.9457 26.3057 10.9457 26.3908 10.9457C26.4547 10.9457 26.4973 10.9457 26.5612 10.9457C26.5825 10.9457 26.5825 10.9457 26.6038 10.9457C26.6464 10.9457 26.7103 10.9457 26.7529 10.967H26.7742C26.8168 10.967 26.8807 10.9883 26.9233 10.9883C26.9871 10.9883 27.0297 11.0095 27.0936 11.0308C28.4779 11.3497 29.5001 12.5828 29.5001 14.0497C29.5001 15.4954 28.4992 16.7072 27.1362 17.0473Z" fill="#9F79FE"/>
<path d="M13.5491 3.0372C10.3973 3.7813 7.75652 5.82224 6.22318 8.56476C6.15929 8.56476 6.0954 8.56476 6.03152 8.56476C2.85837 8.56476 0.324107 11.2648 0.558367 14.475C0.750033 17.1537 2.92226 19.3222 5.60559 19.5136C5.79726 19.5348 5.98892 19.5348 6.15929 19.5348C7.69263 22.3411 10.376 24.4246 13.5704 25.1687C14.3158 25.3388 15.0186 24.7648 15.0186 23.9994C15.0186 23.4466 14.6352 22.9789 14.1028 22.8514C11.7815 22.2986 9.80096 20.8742 8.56578 18.9183C10.3121 18.0041 11.526 16.1758 11.526 14.0498C11.526 11.9663 10.3547 10.138 8.62967 9.22381C9.86485 7.31043 11.8241 5.90728 14.1028 5.37578C14.6352 5.24822 15.0186 4.78051 15.0186 4.22775C15.0186 3.41988 14.2945 2.86712 13.5491 3.0372ZM9.14078 14.0285C9.14078 15.1766 8.50189 16.197 7.56485 16.7285C7.39448 16.8136 7.22411 16.8986 7.03244 16.9624H7.01115C6.94726 16.9837 6.90466 17.0049 6.84078 17.0049C6.84078 17.0049 6.84078 17.0049 6.81948 17.0049C6.75559 17.0262 6.6917 17.0262 6.62781 17.0474C6.62781 17.0474 6.62781 17.0474 6.60652 17.0474C6.54263 17.0687 6.50003 17.0687 6.43615 17.0687C6.41485 17.0687 6.39355 17.0687 6.39355 17.0687C6.35096 17.0687 6.30837 17.0687 6.24448 17.09C6.22318 17.09 6.20189 17.09 6.18059 17.09C6.1167 17.09 6.05281 17.09 5.98892 17.09C5.92503 17.09 5.86115 17.09 5.79726 17.09C5.77596 17.09 5.77596 17.09 5.75466 17.09C5.69078 17.09 5.62689 17.0687 5.58429 17.0687C5.58429 17.0687 5.58429 17.0687 5.563 17.0687C5.41392 17.0474 5.28615 17.0262 5.13707 16.9837C3.838 16.601 2.87966 15.4104 2.87966 14.0073C2.87966 12.5829 3.85929 11.3711 5.15837 11.0096C5.28615 10.9671 5.41392 10.9459 5.563 10.9246H5.58429C5.64818 10.9246 5.69078 10.9033 5.75466 10.9033C5.77596 10.9033 5.77596 10.9033 5.79726 10.9033C5.86115 10.9033 5.92503 10.9033 5.98892 10.9033C6.05281 10.9033 6.1167 10.9033 6.18059 10.9033C6.20189 10.9033 6.22318 10.9033 6.24448 10.9033C6.28707 10.9033 6.35096 10.9033 6.39355 10.9246C6.41485 10.9246 6.43615 10.9246 6.43615 10.9246C6.56392 10.9459 6.6917 10.9671 6.81948 11.0096H6.84078C6.90466 11.0309 6.94726 11.0522 7.01115 11.0522H7.03244C7.22411 11.1159 7.39448 11.201 7.56485 11.3073C8.52318 11.8813 9.14078 12.8805 9.14078 14.0285Z" fill="#9F79FE"/>
</svg>
