<svg width="19" height="19" viewBox="0 0 19 19" fill="none" xmlns="http://www.w3.org/2000/svg">
<g clip-path="url(#clip0)">
<path d="M8 2L0.5 14.5L3 17.5H16.5L18 14.5L11 2H8Z" fill="#FFF500"/>
<path d="M9.49963 13.0211C8.96845 13.0211 8.52319 13.4663 8.52319 13.9975C8.52319 14.5287 8.96845 14.9739 9.49963 14.9739C10.0113 14.9739 10.4761 14.5287 10.4526 14.0209C10.4761 13.4624 10.0347 13.0211 9.49963 13.0211Z" fill="#3B414B"/>
<path d="M18.5377 16.4816C19.1509 15.4231 19.1548 14.1615 18.5455 13.107L12.4291 2.51461C11.8237 1.44834 10.7301 0.815613 9.50367 0.815613C8.27727 0.815613 7.18366 1.45225 6.57827 2.51071L0.454061 13.1148C-0.155235 14.1811 -0.151329 15.4504 0.465779 16.5089C1.07507 17.5556 2.16478 18.1845 3.38337 18.1845H15.6005C16.823 18.1845 17.9206 17.5478 18.5377 16.4816ZM17.2097 15.716C16.8699 16.3019 16.2684 16.6495 15.5966 16.6495H3.37946C2.71549 16.6495 2.11791 16.3097 1.78592 15.7356C1.45003 15.1536 1.44612 14.4584 1.78201 13.8725L7.90622 3.27233C8.23821 2.69037 8.83188 2.34666 9.50367 2.34666C10.1716 2.34666 10.7691 2.69428 11.1011 3.27623L17.2214 13.8764C17.5495 14.4467 17.5456 15.1341 17.2097 15.716Z" fill="#3B414B"/>
<path d="M9.25759 6.16648C8.79281 6.29928 8.50378 6.7211 8.50378 7.23275C8.52722 7.5413 8.54675 7.85376 8.57018 8.16232C8.63658 9.33795 8.70298 10.4901 8.76937 11.6658C8.79281 12.0642 9.10136 12.3532 9.49975 12.3532C9.89813 12.3532 10.2106 12.0446 10.2301 11.6423C10.2301 11.4002 10.2301 11.1776 10.2536 10.9315C10.2965 10.1777 10.3434 9.42387 10.3864 8.67006C10.4098 8.18185 10.4528 7.69363 10.4762 7.20541C10.4762 7.02965 10.4527 6.87342 10.3864 6.71719C10.1872 6.27975 9.72238 6.05712 9.25759 6.16648Z" fill="#3B414B"/>
</g>
<defs>
<clipPath id="clip0">
<rect width="19" height="19" fill="white"/>
</clipPath>
</defs>
</svg>
